<svg xmlns="http://www.w3.org/2000/svg" viewBox="0 0 1280 380" role="img" aria-label="KeLing3.0" font-family="'Segoe UI','PingFang SC','Microsoft YaHei',sans-serif">
  <defs>
    <linearGradient id="bg" x1="0" y1="0" x2="1" y2="1">
      <stop offset="0" stop-color="#04201f"/>
      <stop offset="1" stop-color="#07362f"/>
    </linearGradient>
    <linearGradient id="title" x1="0" y1="0" x2="1" y2="0">
      <stop offset="0" stop-color="#34d399"/>
      <stop offset="1" stop-color="#a7f3d0"/>
    </linearGradient>
    <linearGradient id="beam" x1="0" y1="0" x2="1" y2="0">
      <stop offset="0" stop-color="#ffffff" stop-opacity="0"/>
      <stop offset="0.5" stop-color="#34d399" stop-opacity="0.22"/>
      <stop offset="1" stop-color="#ffffff" stop-opacity="0"/>
    </linearGradient>
  </defs>
  <rect width="1280" height="380" fill="url(#bg)"/>
  <circle cx="960" cy="190" r="152" fill="#34d399" opacity="0.07"/>
  <circle cx="960" cy="190" r="152" fill="none" stroke="#34d399" stroke-width="2" opacity="0.18"/>
  <rect x="-220" y="0" width="220" height="380" fill="url(#beam)">
    <animate attributeName="x" values="-220;1300;-220" dur="7.5s" repeatCount="indefinite"/>
  </rect>
  <g transform="translate(960,190)">
    <circle r="118" fill="#031a18" stroke="#34d399" stroke-width="8"/>
    <ellipse cx="0" cy="0" rx="96" ry="30" fill="none" stroke="#34d399" stroke-width="8" transform="rotate(-20)"/>
    <circle r="54" fill="#07362f" stroke="#34d399" stroke-width="8"/>
    <line x1="0" y1="-52" x2="0" y2="-74" stroke="#a7f3d0" stroke-width="7" stroke-linecap="round"/>
    <path d="M0,-74 C-16,-78 -22,-94 -10,-102 C-4,-94 0,-84 0,-74 Z" fill="#34d399"/>
    <path d="M0,-74 C16,-78 22,-94 10,-102 C4,-94 0,-84 0,-74 Z" fill="#34d399" opacity="0.85"/>
  </g>
  <g transform="translate(380,138)">
    <circle r="10" fill="#a7f3d0">
      <animate attributeName="opacity" values="1;0.2;1" dur="2s" repeatCount="indefinite"/>
    </circle>
    <g>
      <animateTransform attributeName="transform" type="rotate" from="0" to="360" dur="5s" repeatCount="indefinite"/>
      <circle cx="56" cy="0" r="9" fill="#34d399"/>
    </g>
  </g>
  <text x="70" y="150" font-size="60" font-weight="800" fill="url(#title)">KeLing3.0</text>
  <text x="72" y="198" font-size="22" fill="#aee9d2" opacity="0.9">多端知识管理 · 知识星球</text>
  <g font-size="16" font-weight="600">
    <rect x="72" y="220" width="120" height="34" rx="17" fill="#34d399" opacity="0.18" stroke="#6ee7b7" stroke-width="2"/>
    <text x="132" y="242" fill="#d4f7e6" text-anchor="middle">Monorepo</text>
    <rect x="204" y="220" width="108" height="34" rx="17" fill="#a7f3d0" opacity="0.14" stroke="#a7f3d0" stroke-width="2"/>
    <text x="258" y="242" fill="#e3fcef" text-anchor="middle">同步</text>
  </g>
</svg>
